<svg xmlns="http://www.w3.org/2000/svg" viewBox="0 0 1400 360" role="img" aria-label="Agentra Labs Web hero pane">
  <defs>
    <pattern id="grid" width="20" height="20" patternUnits="userSpaceOnUse">
      <circle cx="2" cy="2" r="1" fill="#b8b6ae"/>
    </pattern>
  </defs>
  <rect width="1400" height="360" fill="#f2f1ea"/>
  <rect width="1400" height="360" fill="url(#grid)"/>
  <rect x="20" y="20" width="1360" height="320" fill="none" stroke="#111111" stroke-width="2"/>

  <line x1="20" y1="62" x2="1380" y2="62" stroke="#111111" stroke-width="2"/>
  <text x="40" y="48" font-family="'JetBrains Mono', monospace" font-size="14" fill="#5f5c53" letter-spacing="2"> // AGENTRA_LABS: DEVELOPER_PORTAL</text>
  <rect x="1318" y="36" width="8" height="8" fill="#ea580c"/>
  <text x="1336" y="48" font-family="'JetBrains Mono', monospace" font-size="12" fill="#5f5c53" letter-spacing="2">WEB</text>

  <!-- Doc pages panel -->
  <rect x="46" y="88" width="232" height="236" fill="none" stroke="#111111" stroke-width="2"/>
  <rect x="46" y="88" width="232" height="38" fill="#111111"/>
  <text x="62" y="112" font-family="'JetBrains Mono', monospace" font-size="11" fill="#f2f1ea" letter-spacing="2">SITE_MAP</text>

  <text x="64" y="152" font-family="'JetBrains Mono', monospace" font-size="11" fill="#111111" letter-spacing="1">/docs</text>
  <rect x="130" y="140" width="6" height="16" fill="#ea580c"/>
  <text x="64" y="176" font-family="'JetBrains Mono', monospace" font-size="11" fill="#111111" letter-spacing="1">/projects</text>
  <rect x="158" y="164" width="6" height="16" fill="#111111"/>
  <text x="64" y="200" font-family="'JetBrains Mono', monospace" font-size="11" fill="#111111" letter-spacing="1">/publications</text>
  <rect x="182" y="188" width="6" height="16" fill="#111111"/>
  <text x="64" y="224" font-family="'JetBrains Mono', monospace" font-size="11" fill="#111111" letter-spacing="1">/integrations</text>
  <rect x="182" y="212" width="6" height="16" fill="#ea580c"/>
  <text x="64" y="248" font-family="'JetBrains Mono', monospace" font-size="11" fill="#111111" letter-spacing="1">/blog</text>
  <rect x="118" y="236" width="6" height="16" fill="#111111"/>
  <text x="64" y="272" font-family="'JetBrains Mono', monospace" font-size="11" fill="#111111" letter-spacing="1">/showcase</text>
  <rect x="152" y="260" width="6" height="16" fill="#111111"/>
  <text x="64" y="296" font-family="'JetBrains Mono', monospace" font-size="11" fill="#5f5c53" letter-spacing="1">/install/[profile]</text>

  <!-- Main title -->
  <text x="324" y="136" font-family="'JetBrains Mono', monospace" font-size="48" fill="#111111" font-weight="700" letter-spacing="1">AGENTRA LABS WEB</text>
  <text x="324" y="172" font-family="'JetBrains Mono', monospace" font-size="18" fill="#ea580c" font-weight="700" letter-spacing="2">DOCUMENTATION + DEVELOPER PORTAL</text>
  <text x="324" y="210" font-family="'JetBrains Mono', monospace" font-size="16" fill="#5f5c53">
    Ecosystem docs, install guides, API references, and research papers
  </text>
  <text x="324" y="234" font-family="'JetBrains Mono', monospace" font-size="16" fill="#5f5c53">
    for all five Agentra sisters. Synced from canonical sources.
  </text>

  <rect x="324" y="258" width="126" height="34" fill="#111111"/>
  <text x="344" y="280" font-family="'JetBrains Mono', monospace" font-size="12" fill="#f2f1ea" letter-spacing="2">NEXT.JS</text>
  <rect x="460" y="258" width="154" height="34" fill="#111111"/>
  <text x="476" y="280" font-family="'JetBrains Mono', monospace" font-size="12" fill="#f2f1ea" letter-spacing="2">FUMADOCS</text>
  <rect x="624" y="258" width="126" height="34" fill="#ea580c"/>
  <text x="644" y="280" font-family="'JetBrains Mono', monospace" font-size="12" fill="#f2f1ea" letter-spacing="2">VERCEL</text>
</svg>
