<svg xmlns="http://www.w3.org/2000/svg" viewBox="0 0 1200 630" role="img" aria-label="Agentic ecosystem architecture linking AgenticMemory, AgenticVision, and AgenticCodebase through MCP to AI clients">
  <defs>
    <style>
      .bg { fill: #f2f1ea; }
      .fg { fill: #0a0a0a; }
      .muted { fill: #5f5a4f; }
      .line { stroke: #0a0a0a; stroke-linecap: square; stroke-linejoin: miter; }
      .grid { stroke: #c4c2b8; stroke-width: 1; }
      .h1 { font-family: 'JetBrains Mono', monospace; font-size: 24px; letter-spacing: 0.12em; text-transform: uppercase; fill: #0a0a0a; }
      .h2 { font-family: 'JetBrains Mono', monospace; font-size: 12px; letter-spacing: 0.16em; text-transform: uppercase; fill: #5f5a4f; }
      .body { font-family: 'JetBrains Mono', monospace; font-size: 13px; letter-spacing: 0.06em; text-transform: uppercase; fill: #0a0a0a; }
    </style>

    <marker id="arrow" markerWidth="10" markerHeight="8" refX="10" refY="4" orient="auto" markerUnits="strokeWidth">
      <polygon points="0,0 10,4 0,8" fill="#0a0a0a"/>
    </marker>
  </defs>

  <rect width="1200" height="630" class="bg"/>

  <g>
    <line x1="0" y1="0" x2="1200" y2="0" class="grid"/>
    <line x1="0" y1="24" x2="1200" y2="24" class="grid"/>
    <line x1="0" y1="48" x2="1200" y2="48" class="grid"/>
    <line x1="0" y1="72" x2="1200" y2="72" class="grid"/>
    <line x1="0" y1="96" x2="1200" y2="96" class="grid"/>
    <line x1="0" y1="120" x2="1200" y2="120" class="grid"/>
    <line x1="0" y1="144" x2="1200" y2="144" class="grid"/>
    <line x1="0" y1="168" x2="1200" y2="168" class="grid"/>
    <line x1="0" y1="192" x2="1200" y2="192" class="grid"/>
    <line x1="0" y1="216" x2="1200" y2="216" class="grid"/>
    <line x1="0" y1="240" x2="1200" y2="240" class="grid"/>
    <line x1="0" y1="264" x2="1200" y2="264" class="grid"/>
    <line x1="0" y1="288" x2="1200" y2="288" class="grid"/>
    <line x1="0" y1="312" x2="1200" y2="312" class="grid"/>
    <line x1="0" y1="336" x2="1200" y2="336" class="grid"/>
    <line x1="0" y1="360" x2="1200" y2="360" class="grid"/>
    <line x1="0" y1="384" x2="1200" y2="384" class="grid"/>
    <line x1="0" y1="408" x2="1200" y2="408" class="grid"/>
    <line x1="0" y1="432" x2="1200" y2="432" class="grid"/>
    <line x1="0" y1="456" x2="1200" y2="456" class="grid"/>
    <line x1="0" y1="480" x2="1200" y2="480" class="grid"/>
    <line x1="0" y1="504" x2="1200" y2="504" class="grid"/>
    <line x1="0" y1="528" x2="1200" y2="528" class="grid"/>
    <line x1="0" y1="552" x2="1200" y2="552" class="grid"/>
    <line x1="0" y1="576" x2="1200" y2="576" class="grid"/>
    <line x1="0" y1="600" x2="1200" y2="600" class="grid"/>

    <line x1="0" y1="0" x2="0" y2="630" class="grid"/>
    <line x1="24" y1="0" x2="24" y2="630" class="grid"/>
    <line x1="48" y1="0" x2="48" y2="630" class="grid"/>
    <line x1="72" y1="0" x2="72" y2="630" class="grid"/>
    <line x1="96" y1="0" x2="96" y2="630" class="grid"/>
    <line x1="120" y1="0" x2="120" y2="630" class="grid"/>
    <line x1="144" y1="0" x2="144" y2="630" class="grid"/>
    <line x1="168" y1="0" x2="168" y2="630" class="grid"/>
    <line x1="192" y1="0" x2="192" y2="630" class="grid"/>
    <line x1="216" y1="0" x2="216" y2="630" class="grid"/>
    <line x1="240" y1="0" x2="240" y2="630" class="grid"/>
    <line x1="264" y1="0" x2="264" y2="630" class="grid"/>
    <line x1="288" y1="0" x2="288" y2="630" class="grid"/>
    <line x1="312" y1="0" x2="312" y2="630" class="grid"/>
    <line x1="336" y1="0" x2="336" y2="630" class="grid"/>
    <line x1="360" y1="0" x2="360" y2="630" class="grid"/>
    <line x1="384" y1="0" x2="384" y2="630" class="grid"/>
    <line x1="408" y1="0" x2="408" y2="630" class="grid"/>
    <line x1="432" y1="0" x2="432" y2="630" class="grid"/>
    <line x1="456" y1="0" x2="456" y2="630" class="grid"/>
    <line x1="480" y1="0" x2="480" y2="630" class="grid"/>
    <line x1="504" y1="0" x2="504" y2="630" class="grid"/>
    <line x1="528" y1="0" x2="528" y2="630" class="grid"/>
    <line x1="552" y1="0" x2="552" y2="630" class="grid"/>
    <line x1="576" y1="0" x2="576" y2="630" class="grid"/>
    <line x1="600" y1="0" x2="600" y2="630" class="grid"/>
    <line x1="624" y1="0" x2="624" y2="630" class="grid"/>
    <line x1="648" y1="0" x2="648" y2="630" class="grid"/>
    <line x1="672" y1="0" x2="672" y2="630" class="grid"/>
    <line x1="696" y1="0" x2="696" y2="630" class="grid"/>
    <line x1="720" y1="0" x2="720" y2="630" class="grid"/>
    <line x1="744" y1="0" x2="744" y2="630" class="grid"/>
    <line x1="768" y1="0" x2="768" y2="630" class="grid"/>
    <line x1="792" y1="0" x2="792" y2="630" class="grid"/>
    <line x1="816" y1="0" x2="816" y2="630" class="grid"/>
    <line x1="840" y1="0" x2="840" y2="630" class="grid"/>
    <line x1="864" y1="0" x2="864" y2="630" class="grid"/>
    <line x1="888" y1="0" x2="888" y2="630" class="grid"/>
    <line x1="912" y1="0" x2="912" y2="630" class="grid"/>
    <line x1="936" y1="0" x2="936" y2="630" class="grid"/>
    <line x1="960" y1="0" x2="960" y2="630" class="grid"/>
    <line x1="984" y1="0" x2="984" y2="630" class="grid"/>
    <line x1="1008" y1="0" x2="1008" y2="630" class="grid"/>
    <line x1="1032" y1="0" x2="1032" y2="630" class="grid"/>
    <line x1="1056" y1="0" x2="1056" y2="630" class="grid"/>
    <line x1="1080" y1="0" x2="1080" y2="630" class="grid"/>
    <line x1="1104" y1="0" x2="1104" y2="630" class="grid"/>
    <line x1="1128" y1="0" x2="1128" y2="630" class="grid"/>
    <line x1="1152" y1="0" x2="1152" y2="630" class="grid"/>
    <line x1="1176" y1="0" x2="1176" y2="630" class="grid"/>
  </g>

  <rect x="24" y="24" width="1152" height="582" fill="none" class="line" stroke-width="2"/>

  <text x="48" y="62" class="h1">AGENTIC ECOSYSTEM ARCHITECTURE</text>
  <text x="48" y="86" class="h2">memory + vision + codebase -> mcp surface -> multi-client agents</text>

  <g>
    <rect x="60" y="140" width="300" height="120" fill="none" class="line" stroke-width="2"/>
    <rect x="60" y="140" width="300" height="30" class="fg"/>
    <text x="74" y="160" style="font-family:'JetBrains Mono', monospace; font-size:11px; letter-spacing:0.16em; text-transform:uppercase; fill:#f2f1ea;">agentic-memory</text>
    <text x="80" y="202" class="body">cognitive graph memory</text>
    <text x="80" y="226" class="h2">artifact: .amem</text>

    <rect x="60" y="286" width="300" height="120" fill="none" class="line" stroke-width="2"/>
    <rect x="60" y="286" width="300" height="30" class="fg"/>
    <text x="74" y="306" style="font-family:'JetBrains Mono', monospace; font-size:11px; letter-spacing:0.16em; text-transform:uppercase; fill:#f2f1ea;">agentic-vision</text>
    <text x="80" y="348" class="body">persistent visual memory</text>
    <text x="80" y="372" class="h2">artifact: .avis</text>

    <rect x="60" y="432" width="300" height="120" fill="none" class="line" stroke-width="2"/>
    <rect x="60" y="432" width="300" height="30" class="fg"/>
    <text x="74" y="452" style="font-family:'JetBrains Mono', monospace; font-size:11px; letter-spacing:0.16em; text-transform:uppercase; fill:#f2f1ea;">agentic-codebase</text>
    <text x="80" y="494" class="body">semantic code graph</text>
    <text x="80" y="518" class="h2">artifact: .acb</text>
  </g>

  <g>
    <rect x="448" y="250" width="300" height="190" fill="none" class="line" stroke-width="2"/>
    <rect x="448" y="250" width="300" height="34" fill="#ea580c"/>
    <text x="462" y="273" style="font-family:'JetBrains Mono', monospace; font-size:11px; letter-spacing:0.16em; text-transform:uppercase; fill:#f2f1ea;">mcp bridge layer</text>

    <text x="470" y="325" class="body">json-rpc over stdio</text>
    <text x="470" y="351" class="body">tool + resource surface</text>
    <text x="470" y="377" class="body">cross-session continuity</text>
    <text x="470" y="403" class="h2">single integration contract</text>

    <circle cx="712" cy="424" r="8" fill="#ea580c"/>
  </g>

  <g>
    <rect x="836" y="140" width="300" height="412" fill="none" class="line" stroke-width="2"/>
    <rect x="836" y="140" width="300" height="30" class="fg"/>
    <text x="850" y="160" style="font-family:'JetBrains Mono', monospace; font-size:11px; letter-spacing:0.16em; text-transform:uppercase; fill:#f2f1ea;">client ecosystem</text>

    <rect x="862" y="194" width="248" height="54" fill="none" class="line" stroke-width="2"/>
    <text x="880" y="226" class="body">claude desktop</text>

    <rect x="862" y="264" width="248" height="54" fill="none" class="line" stroke-width="2"/>
    <text x="880" y="296" class="body">vscode / cursor</text>

    <rect x="862" y="334" width="248" height="54" fill="none" class="line" stroke-width="2"/>
    <text x="880" y="366" class="body">windsurf / crewai</text>

    <rect x="862" y="404" width="248" height="54" fill="none" class="line" stroke-width="2"/>
    <text x="880" y="436" class="body">langchain / autogen</text>

    <text x="862" y="500" class="h2">same stack, multi-client operation</text>
  </g>

  <g class="line" stroke-width="2" fill="none" marker-end="url(#arrow)">
    <line x1="360" y1="200" x2="448" y2="290"/>
    <line x1="360" y1="346" x2="448" y2="346"/>
    <line x1="360" y1="492" x2="448" y2="400"/>
    <line x1="748" y1="346" x2="836" y2="346"/>
  </g>

  <circle cx="404" cy="322" r="5" fill="#ea580c"/>
  <circle cx="792" cy="346" r="5" fill="#ea580c"/>

  <text x="48" y="586" class="h2">design doctrine: hard-edge geometry / monospace hierarchy / single accent signal</text>
</svg>
